<?xml version="1.0" standalone="no"?>
<!DOCTYPE svg PUBLIC "-//W3C//DTD SVG 20010904//EN"
 "http://www.w3.org/TR/2001/REC-SVG-20010904/DTD/svg10.dtd">
<svg version="1.0" xmlns="http://www.w3.org/2000/svg"
 width="1658.000000pt" height="1658.000000pt" viewBox="0 0 1658.000000 1658.000000"
 preserveAspectRatio="xMidYMid meet">
<metadata>
Created by potrace 1.16, written by Peter Selinger 2001-2019
</metadata>
<g transform="translate(0.000000,1658.000000) scale(0.100000,-0.100000)"
fill="#000000" stroke="none">
<path d="M15550 11657 c-14 -6 -27 -14 -30 -18 -3 -3 -21 -14 -40 -24 -19 -10
-37 -21 -40 -24 -3 -4 -24 -15 -47 -25 -24 -11 -43 -22 -43 -26 0 -4 -22 -17
-50 -30 -27 -13 -50 -27 -50 -31 0 -3 -8 -9 -17 -13 -24 -7 -48 -24 -94 -66
-56 -49 -90 -78 -118 -97 -14 -9 -33 -24 -42 -32 -10 -9 -36 -32 -58 -51 -84
-73 -358 -351 -401 -406 -25 -32 -56 -70 -70 -84 -14 -14 -36 -42 -49 -62 -12
-21 -27 -38 -32 -38 -5 0 -20 -17 -33 -37 -13 -21 -32 -47 -42 -58 -21 -22
-38 -45 -90 -125 -20 -30 -39 -57 -43 -60 -11 -9 -47 -64 -54 -82 -3 -10 -11
-18 -16 -18 -5 0 -12 -11 -15 -25 -4 -14 -11 -25 -16 -25 -6 0 -10 -7 -10 -15
0 -8 -9 -24 -20 -35 -12 -12 -18 -25 -15 -30 4 -6 2 -10 -3 -10 -5 0 -19 -20
-32 -45 -13 -25 -27 -45 -33 -45 -5 0 -7 -7 -3 -15 3 -8 2 -15 -2 -15 -4 0
-16 -19 -26 -43 -11 -23 -26 -50 -34 -59 -8 -9 -11 -22 -7 -27 3 -6 1 -11 -5
-11 -6 0 -15 -12 -22 -27 -6 -16 -19 -47 -29 -70 -11 -24 -19 -47 -19 -53 0
-5 -4 -10 -8 -10 -5 0 -19 -24 -31 -52 -13 -29 -28 -60 -35 -68 -7 -8 -24 -41
-36 -72 -13 -32 -28 -58 -32 -58 -5 0 -6 -4 -3 -10 3 -5 3 -10 -2 -10 -4 0
-16 -19 -27 -43 -10 -23 -22 -50 -27 -59 -5 -10 -9 -24 -9 -32 0 -8 -4 -16
-10 -18 -11 -4 -60 -134 -60 -160 0 -10 -4 -18 -8 -18 -5 0 -13 -17 -18 -37
-7 -28 -8 -8 -6 77 3 69 9 127 18 145 7 17 18 71 23 120 16 146 31 228 47 258
8 15 12 36 9 47 -4 11 -2 20 3 20 5 0 12 12 15 28 3 15 12 56 20 92 8 36 13
67 11 69 -7 8 -85 -22 -106 -40 -11 -10 -40 -26 -64 -35 -24 -9 -44 -20 -44
-24 0 -4 -20 -15 -45 -24 -25 -10 -45 -21 -45 -25 0 -3 -22 -15 -50 -26 -27
-11 -50 -22 -50 -26 0 -4 -19 -14 -42 -24 -24 -9 -50 -22 -58 -29 -8 -7 -36
-22 -62 -32 -27 -10 -48 -22 -48 -27 0 -4 -18 -14 -40 -23 -22 -9 -40 -19 -40
-24 0 -4 -18 -15 -40 -25 -22 -10 -40 -21 -40 -25 0 -3 -19 -16 -42 -28 -24
-12 -63 -36 -88 -52 -25 -16 -65 -40 -90 -52 -25 -13 -48 -28 -52 -34 -4 -6
-21 -17 -38 -24 -16 -7 -30 -16 -30 -20 0 -4 -18 -15 -40 -25 -22 -10 -40 -22
-40 -26 0 -4 -18 -15 -40 -25 -22 -10 -40 -21 -40 -25 0 -4 -20 -18 -45 -30
-25 -12 -45 -26 -45 -29 0 -4 -18 -15 -40 -25 -22 -10 -40 -22 -40 -26 0 -5
-16 -15 -35 -23 -19 -8 -35 -19 -35 -24 0 -5 -18 -17 -40 -27 -22 -10 -47 -26
-56 -36 -10 -11 -21 -19 -25 -19 -5 0 -29 -16 -55 -35 -25 -19 -49 -35 -54
-35 -5 0 -20 -10 -33 -22 -13 -13 -32 -29 -43 -35 -10 -7 -45 -31 -76 -53 -31
-22 -61 -40 -67 -40 -6 0 -11 -4 -11 -9 0 -6 -18 -20 -40 -32 -22 -13 -40 -26
-40 -29 0 -4 -18 -15 -40 -25 -22 -10 -40 -22 -40 -27 0 -4 -16 -16 -35 -25
-19 -9 -35 -20 -35 -25 0 -4 -15 -15 -32 -24 -18 -9 -35 -20 -38 -24 -3 -4
-23 -18 -45 -32 -30 -19 -43 -22 -51 -14 -20 20 -58 51 -87 69 -16 10 -36 25
-45 33 -58 50 -76 64 -81 64 -3 0 -18 10 -33 23 -14 12 -47 38 -73 57 -25 19
-65 50 -88 68 -23 18 -52 40 -65 50 -12 9 -35 28 -50 41 -15 12 -39 29 -54 37
-16 8 -28 18 -28 22 0 4 -14 16 -30 26 -17 9 -42 28 -57 42 -14 13 -30 24 -34
24 -4 0 -19 10 -32 23 -13 12 -38 33 -56 47 -18 14 -38 30 -45 36 -6 6 -24 19
-41 29 -34 21 -48 33 -88 69 -15 14 -31 26 -35 26 -4 0 -24 15 -44 33 -41 36
-58 49 -138 106 -55 39 -74 55 -140 111 -19 17 -37 30 -41 30 -3 0 -17 10 -31
23 -34 31 -97 80 -117 91 -9 5 -20 15 -26 21 -5 6 -31 29 -57 49 -47 37 -47
38 -72 19 -14 -10 -26 -21 -26 -25 0 -9 -38 -65 -78 -116 -18 -22 -32 -45 -32
-51 0 -6 -9 -16 -20 -23 -11 -7 -20 -18 -20 -24 0 -6 -7 -17 -15 -24 -25 -21
-17 -45 26 -81 23 -19 51 -42 63 -52 11 -10 36 -31 55 -45 19 -15 46 -38 61
-52 15 -14 42 -37 61 -52 20 -15 46 -38 60 -50 14 -13 48 -42 75 -63 27 -22
58 -48 68 -57 11 -10 23 -18 28 -18 4 0 8 -6 8 -14 0 -8 10 -18 21 -21 12 -4
37 -21 55 -39 18 -17 45 -40 60 -51 15 -11 39 -31 54 -45 15 -14 44 -38 65
-55 20 -16 44 -37 54 -45 9 -8 39 -33 66 -54 28 -22 61 -50 75 -62 52 -47 101
-88 184 -153 l39 -31 -2507 0 -2506 0 2 -252 3 -253 1318 -3 c876 -1 1317 1
1317 8 0 12 152 14 166 1 5 -5 35 -16 67 -25 31 -9 57 -21 57 -26 0 -5 9 -12
20 -15 27 -8 110 -85 110 -100 0 -7 6 -15 13 -18 7 -2 23 -35 36 -71 21 -59
23 -79 18 -169 -5 -100 -38 -237 -56 -237 -5 0 -12 -11 -15 -25 -4 -14 -11
-25 -16 -25 -6 0 -10 -5 -10 -11 0 -10 -57 -67 -212 -213 -14 -14 -38 -31 -52
-37 -14 -7 -26 -15 -26 -19 0 -4 -18 -15 -40 -26 -22 -10 -40 -23 -40 -27 0
-4 -16 -15 -35 -23 -19 -8 -35 -18 -35 -23 0 -5 -25 -19 -55 -32 -30 -12 -55
-26 -55 -30 0 -4 -19 -14 -42 -24 -24 -9 -45 -20 -48 -24 -6 -9 -103 -41 -124
-41 -9 0 -16 -3 -16 -8 0 -8 -142 -42 -176 -42 -11 0 -34 -6 -50 -14 -37 -18
-234 -39 -384 -40 -249 -2 -617 23 -630 43 -3 5 -35 11 -73 15 -37 4 -79 11
-93 16 -14 6 -36 10 -50 10 -13 0 -24 5 -24 10 0 6 -8 10 -17 10 -33 0 -158
34 -170 46 -7 7 -31 15 -53 19 -23 4 -44 13 -46 20 -3 7 -19 15 -35 19 -28 5
-166 65 -199 87 -8 5 -35 18 -60 30 -24 11 -47 24 -50 28 -3 4 -21 15 -41 24
-20 9 -42 23 -49 32 -7 8 -18 15 -24 15 -7 0 -21 8 -32 18 -10 10 -36 28 -56
41 -21 12 -38 26 -38 30 0 4 -10 13 -22 18 -59 28 -292 259 -401 398 -47 61
-95 119 -105 131 -10 11 -16 26 -14 32 2 7 -1 12 -6 12 -6 0 -17 12 -25 28
-35 66 -46 85 -55 91 -4 3 -19 40 -31 81 -12 41 -29 89 -38 107 -21 42 -24
360 -4 373 7 4 12 9 11 11 -1 2 3 17 9 32 6 16 11 34 11 41 0 6 4 16 8 21 5 6
15 29 22 53 7 23 17 42 22 42 5 0 6 5 3 10 -3 6 -3 10 2 10 4 0 18 23 31 50
13 28 27 50 31 50 5 0 18 21 30 48 28 62 41 82 68 105 13 10 23 23 23 29 0 9
49 72 98 125 12 13 22 27 22 30 0 12 162 163 239 223 18 14 43 34 55 45 13 11
38 31 56 45 19 14 43 34 54 45 12 11 38 29 59 40 20 11 37 23 37 27 0 4 14 15
32 24 17 9 36 20 42 25 58 49 180 127 262 169 38 19 73 40 79 46 5 7 27 17 48
24 20 6 37 15 37 19 0 3 23 15 50 26 28 11 50 22 50 25 0 3 24 14 53 24 28 11
59 24 67 31 8 7 40 21 70 31 30 10 61 24 68 31 12 12 75 33 98 33 6 0 17 6 23
14 6 7 30 17 54 20 23 4 51 13 63 20 11 8 49 21 85 31 35 9 71 20 80 25 16 8
131 36 192 45 20 3 37 10 37 15 0 6 25 10 55 10 51 0 55 -2 61 -26 4 -14 4
-57 1 -95 l-6 -69 1182 2 1182 3 8 64 c4 36 15 80 24 98 8 18 13 44 11 58 -3
13 -1 26 3 27 5 2 12 24 15 50 l7 47 -34 5 c-19 3 -131 8 -249 12 -118 3 -217
7 -218 9 -2 2 -3 74 -3 159 l2 156 -25 9 c-13 6 -82 15 -152 21 -199 19 -218
22 -226 34 -10 15 -1176 15 -1186 -1 -7 -11 -27 -13 -287 -34 -82 -6 -153 -16
-156 -22 -4 -5 -44 -13 -90 -17 -117 -11 -169 -21 -169 -31 0 -5 -17 -9 -37
-9 -21 0 -56 -5 -78 -10 -22 -6 -75 -15 -119 -20 -43 -5 -83 -13 -90 -18 -6
-6 -49 -17 -96 -27 -47 -9 -86 -21 -88 -26 -2 -5 -11 -9 -20 -9 -29 0 -166
-32 -192 -45 -14 -6 -46 -18 -72 -25 -27 -7 -48 -16 -48 -19 0 -4 -28 -15 -62
-26 -35 -10 -67 -21 -73 -25 -5 -4 -37 -17 -70 -29 -33 -13 -62 -26 -65 -29
-3 -4 -31 -16 -62 -26 -32 -11 -58 -22 -58 -26 0 -3 -24 -14 -52 -25 -29 -10
-64 -27 -77 -37 -13 -10 -30 -18 -37 -18 -7 0 -19 -6 -26 -13 -7 -7 -38 -23
-68 -36 -30 -13 -57 -27 -60 -31 -5 -7 -26 -19 -126 -70 -27 -14 -52 -30 -56
-36 -4 -6 -21 -17 -38 -24 -16 -7 -30 -16 -30 -21 0 -5 -14 -16 -32 -25 -18
-9 -39 -23 -47 -32 -8 -8 -30 -21 -48 -29 -18 -7 -33 -17 -33 -22 0 -5 -13
-14 -30 -21 -16 -7 -41 -22 -54 -34 -14 -11 -39 -32 -57 -46 -87 -68 -198
-170 -345 -317 -167 -167 -234 -242 -234 -261 0 -6 -11 -19 -23 -29 -13 -10
-36 -38 -51 -61 -15 -24 -33 -45 -41 -49 -8 -3 -15 -9 -15 -13 0 -13 -53 -90
-62 -90 -4 0 -8 -6 -8 -12 0 -7 -13 -27 -30 -44 -16 -18 -26 -35 -23 -38 4 -3
1 -6 -6 -6 -6 0 -20 -20 -31 -45 -11 -25 -24 -45 -30 -45 -6 0 -8 -4 -5 -10 3
-5 2 -10 -3 -10 -5 0 -15 -15 -22 -32 -6 -18 -16 -41 -21 -50 -5 -10 -9 -27
-9 -37 0 -11 -4 -22 -10 -26 -5 -3 -7 -12 -3 -20 3 -8 0 -15 -5 -15 -17 0 -42
-99 -53 -210 -5 -58 -14 -106 -19 -108 -17 -6 -12 -224 5 -265 8 -20 15 -52
15 -70 0 -47 38 -189 53 -199 6 -4 8 -8 2 -8 -6 0 -6 -3 0 -8 6 -4 18 -33 28
-64 10 -32 24 -64 32 -72 8 -7 11 -16 8 -20 -4 -3 -1 -6 5 -6 7 0 12 -4 12
-10 0 -19 50 -118 74 -146 13 -16 42 -50 63 -75 21 -26 54 -66 73 -89 19 -24
79 -86 134 -139 54 -53 122 -120 151 -148 29 -29 57 -53 62 -53 5 0 19 -10 30
-22 12 -13 38 -36 58 -53 21 -16 50 -41 66 -55 54 -48 128 -100 184 -131 22
-12 42 -25 45 -29 3 -4 25 -18 48 -31 24 -13 58 -32 74 -41 17 -9 34 -21 37
-26 3 -5 30 -17 59 -26 28 -10 52 -21 52 -25 0 -4 24 -15 53 -25 28 -10 57
-25 63 -32 9 -12 31 -19 122 -41 12 -3 22 -9 22 -13 0 -4 12 -10 28 -13 71
-14 127 -30 132 -38 3 -4 34 -15 69 -23 35 -8 67 -19 70 -24 3 -5 37 -13 75
-17 167 -17 85 -23 -271 -19 -222 2 -392 8 -408 14 -14 5 -42 10 -61 10 -19 0
-34 4 -34 9 0 5 -33 11 -72 14 -101 6 -252 28 -258 37 -6 9 -102 30 -140 30
-16 0 -35 6 -42 14 -8 7 -43 18 -78 24 -109 19 -130 24 -130 32 0 4 -15 10
-33 13 -51 9 -131 31 -147 42 -8 5 -46 18 -84 27 -39 10 -72 21 -75 26 -3 4
-31 16 -61 26 -30 11 -64 25 -75 32 -11 6 -37 17 -57 24 -21 6 -38 15 -38 20
0 5 -15 12 -33 15 -17 4 -63 23 -102 41 -38 19 -75 34 -82 34 -7 0 -16 6 -20
13 -4 8 -32 22 -60 32 -29 11 -53 22 -53 25 0 3 -22 14 -50 25 -27 11 -50 22
-50 26 0 4 -18 14 -40 23 -22 9 -40 20 -40 25 0 5 -8 12 -18 15 -21 7 -121 68
-144 89 -9 8 -25 18 -35 21 -11 3 -28 14 -39 24 -10 9 -32 26 -49 36 -16 11
-34 25 -38 33 -4 7 -13 13 -19 13 -10 0 -55 33 -104 77 -13 13 -34 28 -46 34
-47 25 -338 312 -338 333 0 8 -9 22 -21 30 -12 8 -19 19 -15 24 3 5 -3 17 -14
27 -11 10 -20 26 -20 36 0 10 -4 20 -9 24 -5 3 -12 19 -16 35 -4 17 -10 30
-15 30 -4 0 -18 26 -31 58 -23 54 -24 69 -23 259 0 111 6 225 12 255 6 29 16
80 22 112 5 33 15 63 21 67 7 4 9 19 7 33 -3 14 -2 26 2 26 4 0 15 27 24 59 9
32 23 65 32 72 8 7 13 18 10 26 -3 7 -1 13 4 13 5 0 17 16 25 36 18 45 98 165
136 207 16 17 29 35 29 40 0 5 19 29 43 54 86 92 97 104 97 111 0 10 144 156
220 222 34 30 78 70 97 88 20 17 39 32 43 32 4 0 32 23 61 50 29 28 56 50 60
50 3 0 20 12 36 28 17 15 47 41 67 57 21 17 43 35 49 41 7 6 25 19 42 30 16
10 36 25 45 32 39 35 176 132 192 138 10 3 18 9 18 13 0 4 18 16 40 26 22 10
40 22 40 26 0 4 18 15 40 25 22 10 40 21 40 25 0 4 18 14 40 23 22 9 40 19 40
23 0 5 20 16 45 26 25 11 45 22 45 26 0 4 23 18 50 31 28 13 50 26 50 29 0 3
20 15 45 26 25 11 45 22 45 26 0 4 19 17 43 29 23 12 60 31 82 42 22 11 42 23
45 27 3 4 27 18 53 32 105 52 132 67 142 76 6 4 30 17 55 28 25 11 47 23 50
26 3 4 25 15 50 25 25 10 47 20 50 24 3 3 28 14 55 25 28 10 52 21 55 25 3 4
33 18 68 30 34 12 62 26 62 29 0 4 26 15 58 26 31 11 59 22 62 26 6 9 96 39
115 39 8 0 15 4 15 9 0 4 21 14 48 21 26 7 56 18 67 24 11 6 47 20 80 30 33
10 78 26 100 36 22 11 62 24 90 30 27 6 52 15 55 19 6 8 135 41 163 41 9 0 17
4 17 9 0 4 35 16 78 25 42 10 88 23 102 30 14 8 56 19 95 25 38 7 74 16 80 21
6 5 39 13 75 18 36 6 99 16 140 22 41 6 81 17 88 23 8 6 57 16 109 23 53 7 99
17 102 22 3 5 55 12 115 16 60 4 120 12 133 17 13 5 56 9 94 9 39 0 69 4 69
10 0 6 27 10 61 10 33 0 90 4 127 9 37 6 129 12 205 15 l137 4 0 -129 0 -129
693 0 c380 0 1221 -3 1867 -7 l1175 -6 13 54 c6 30 12 68 12 85 0 16 5 35 11
41 6 6 9 36 7 72 -1 34 0 62 3 64 4 1 10 17 14 35 l7 32 -461 0 -460 0 -3 43
-3 42 -635 5 -635 5 4 91 3 92 -68 6 c-95 9 -1905 11 -2029 3 -55 -4 -101 -11
-103 -17 -2 -6 -38 -10 -80 -10 -43 0 -140 -7 -217 -15 -77 -8 -168 -15 -202
-15 -35 0 -63 -4 -63 -9 0 -8 -48 -17 -145 -27 -125 -12 -225 -28 -225 -35 0
-5 -21 -9 -47 -9 -27 0 -86 -7 -133 -15 -47 -8 -101 -15 -121 -15 -19 0 -39
-4 -45 -9 -9 -9 -90 -25 -181 -36 -29 -4 -53 -11 -53 -15 0 -5 -21 -12 -47
-15 -59 -8 -122 -23 -148 -35 -27 -12 -147 -40 -171 -40 -11 0 -25 -5 -30 -10
-9 -9 -90 -30 -182 -47 -17 -3 -32 -9 -32 -13 0 -4 -12 -10 -28 -13 -93 -19
-138 -31 -143 -40 -4 -5 -37 -15 -75 -23 -37 -8 -71 -18 -74 -22 -3 -4 -34
-16 -70 -27 -36 -10 -69 -22 -75 -26 -5 -4 -41 -17 -80 -28 -38 -12 -72 -25
-75 -29 -7 -9 -103 -42 -124 -42 -9 0 -16 -4 -16 -8 0 -9 -92 -42 -116 -42 -8
0 -14 -4 -14 -9 0 -5 -25 -17 -55 -26 -30 -8 -55 -20 -55 -25 0 -6 -7 -10 -16
-10 -9 0 -46 -15 -82 -33 -37 -19 -84 -39 -105 -46 -20 -7 -37 -16 -37 -20 0
-4 -26 -16 -57 -26 -32 -11 -64 -25 -71 -32 -7 -7 -31 -17 -52 -23 -22 -6 -40
-15 -40 -20 0 -6 -18 -17 -40 -26 -22 -9 -40 -19 -40 -23 0 -4 -25 -18 -55
-31 -30 -13 -55 -27 -55 -31 0 -3 -20 -14 -45 -25 -25 -10 -45 -21 -45 -25 0
-4 -20 -15 -45 -26 -25 -10 -45 -22 -45 -26 0 -4 -16 -15 -35 -23 -19 -8 -35
-18 -35 -23 0 -6 -10 -13 -21 -16 -20 -7 -129 -72 -154 -93 -5 -4 -26 -17 -45
-28 -19 -10 -37 -22 -40 -25 -3 -3 -36 -26 -75 -52 -38 -25 -81 -55 -95 -66
-14 -11 -29 -21 -34 -21 -5 0 -18 -9 -30 -20 -39 -38 -101 -90 -107 -90 -4 0
-25 -17 -48 -37 -60 -56 -108 -95 -128 -107 -18 -11 -50 -40 -203 -186 -43
-41 -97 -92 -119 -113 -23 -20 -62 -63 -87 -95 -26 -31 -58 -68 -73 -82 -14
-14 -42 -45 -61 -69 -65 -82 -95 -116 -118 -134 -12 -10 -22 -25 -22 -33 0 -7
-9 -19 -20 -26 -11 -7 -20 -17 -20 -21 0 -9 -43 -68 -72 -101 -10 -11 -18 -23
-18 -28 0 -4 -11 -20 -24 -35 -65 -74 -85 -101 -79 -107 3 -3 1 -6 -6 -6 -6 0
-16 -10 -22 -22 -14 -32 -32 -63 -49 -83 -16 -19 -36 -53 -45 -75 -4 -8 -11
-22 -16 -30 -5 -8 -16 -31 -24 -50 -9 -19 -20 -43 -25 -52 -6 -10 -10 -27 -10
-37 0 -11 -6 -24 -14 -28 -13 -8 -26 -49 -48 -158 -5 -27 -16 -63 -23 -80 -31
-68 -46 -523 -18 -532 5 -2 7 -19 5 -38 -2 -19 0 -35 6 -35 5 0 20 -33 33 -72
12 -40 27 -76 33 -80 6 -4 7 -8 2 -8 -5 0 -4 -6 2 -12 19 -24 52 -89 52 -102
0 -7 7 -19 15 -26 8 -6 29 -42 46 -78 18 -37 37 -70 41 -73 5 -3 15 -17 22
-30 28 -54 42 -74 59 -87 9 -7 17 -19 17 -25 0 -36 344 -380 449 -449 14 -10
55 -38 91 -63 99 -70 231 -157 284 -189 17 -10 33 -21 36 -25 3 -4 24 -15 48
-25 23 -11 42 -22 42 -26 0 -4 20 -15 45 -24 25 -10 45 -22 45 -27 0 -5 5 -9
11 -9 16 0 190 -87 199 -100 3 -3 29 -15 58 -25 28 -11 52 -22 52 -25 0 -4 27
-15 60 -25 33 -10 60 -22 60 -26 0 -4 17 -13 38 -19 20 -7 46 -18 57 -25 11
-6 47 -20 80 -29 33 -10 78 -26 100 -36 22 -9 61 -23 88 -30 26 -7 47 -16 47
-20 0 -4 12 -10 27 -13 88 -18 139 -32 144 -39 3 -5 41 -15 84 -23 44 -9 82
-19 85 -24 3 -5 25 -12 50 -16 25 -4 67 -13 94 -21 27 -8 66 -14 87 -14 21 0
39 -5 41 -11 2 -6 53 -17 112 -25 60 -8 114 -19 121 -24 24 -20 458 -35 1010
-35 610 1 1015 16 1062 40 15 8 51 15 78 15 73 0 228 19 235 29 3 4 52 11 109
15 58 4 112 11 120 15 9 5 58 12 109 16 50 4 92 11 92 16 0 4 17 11 38 14 87
13 142 27 142 36 0 5 15 9 33 9 17 0 54 7 81 15 27 8 62 15 77 15 15 0 29 4
31 10 2 5 32 17 68 26 36 9 70 20 75 24 15 11 150 50 174 50 17 0 22 -8 27
-40 4 -22 10 -40 13 -40 4 0 5 -16 3 -35 -2 -19 0 -41 6 -48 5 -6 13 -27 17
-46 4 -19 13 -41 21 -48 14 -15 90 -18 96 -4 3 10 270 25 708 42 172 6 287 15
291 21 4 6 65 13 138 16 129 5 131 5 131 28 0 13 -4 24 -10 24 -13 0 -13 207
0 223 6 7 17 21 25 32 11 17 27 20 107 23 51 2 102 7 113 12 11 6 95 16 187
23 105 9 173 18 183 27 38 31 46 73 43 209 -3 130 -3 132 20 138 12 3 26 10
30 17 4 6 48 31 97 56 50 25 96 50 102 57 7 6 34 19 60 29 27 10 54 24 61 31
7 6 28 17 47 24 19 7 35 16 35 20 0 4 20 15 45 26 25 10 45 21 45 24 0 3 19
14 43 25 23 10 44 21 47 25 3 4 29 17 58 29 28 12 52 25 52 29 0 4 23 15 50
26 28 11 50 23 50 26 0 4 20 15 45 25 25 9 45 20 45 24 0 5 14 13 30 19 17 5
30 17 30 25 0 21 -32 86 -42 86 -5 0 -6 5 -3 11 4 5 0 18 -8 27 -8 9 -25 41
-38 70 -12 28 -27 52 -31 52 -5 0 -13 11 -18 25 -5 14 -17 28 -25 31 -14 6
-83 -20 -95 -35 -3 -3 -45 -26 -95 -51 -49 -25 -92 -48 -95 -52 -3 -4 -23 -14
-44 -23 -21 -9 -43 -21 -50 -26 -13 -12 -106 -62 -158 -85 -21 -10 -38 -21
-38 -25 0 -4 -16 -13 -35 -19 -19 -6 -41 -17 -48 -24 -12 -11 -80 -46 -91 -46
-3 0 -21 -11 -41 -24 -20 -14 -66 -39 -103 -57 -37 -18 -69 -36 -72 -40 -6 -9
-56 -29 -71 -29 -6 0 -8 4 -5 9 4 5 2 11 -3 13 -9 3 -61 112 -61 128 0 4 16
14 35 20 19 6 35 15 35 19 0 4 16 13 35 20 19 7 40 18 47 24 16 15 82 47 97
47 6 0 11 4 11 8 0 5 27 20 60 33 33 13 60 27 60 30 0 4 19 14 42 24 23 9 47
22 52 30 6 7 28 18 49 25 20 6 37 15 37 19 0 3 23 15 50 26 28 11 50 23 50 26
0 4 21 15 46 25 25 10 51 22 58 29 16 15 178 95 194 95 6 0 12 5 12 10 0 6 18
17 40 26 22 9 40 20 40 25 0 5 6 9 13 10 6 0 32 11 57 24 25 13 65 34 90 45
24 12 47 24 50 28 3 4 25 16 50 27 25 11 47 22 50 26 5 6 33 21 130 70 25 13
47 26 50 29 3 4 31 17 63 30 31 13 57 26 57 30 0 3 19 14 43 25 23 10 44 21
47 25 7 8 76 40 88 40 6 0 12 6 14 12 4 10 9 9 21 -2 9 -8 34 -31 57 -50 23
-19 52 -44 64 -55 12 -11 39 -33 61 -50 21 -16 51 -41 66 -55 68 -62 177 -154
243 -205 59 -45 86 -68 110 -90 12 -11 34 -28 50 -38 27 -18 43 -31 88 -71 13
-11 36 -29 52 -39 29 -19 42 -30 94 -77 18 -17 36 -30 41 -30 4 0 22 -12 38
-27 17 -16 41 -36 54 -46 115 -87 184 -137 191 -137 4 0 8 -7 8 -15 0 -8 7
-15 15 -15 9 0 27 -11 41 -25 14 -14 38 -32 55 -40 16 -9 33 -23 36 -31 3 -7
10 -14 17 -14 11 0 51 -31 108 -82 42 -38 68 -37 68 2 0 16 6 65 14 107 8 43
20 107 26 143 15 89 15 89 23 96 4 4 7 20 7 36 0 16 6 61 14 101 8 40 20 107
27 150 7 42 16 77 20 77 4 0 9 26 13 58 15 138 18 155 27 141 5 -8 9 -26 9
-41 0 -16 4 -28 9 -28 4 0 6 -11 4 -25 -3 -14 1 -31 11 -40 9 -9 16 -30 16
-46 0 -17 7 -58 14 -92 8 -34 18 -79 21 -99 3 -21 10 -38 15 -38 4 0 13 -19
18 -42 20 -84 44 -163 52 -173 5 -5 9 -14 10 -20 1 -5 7 -23 15 -40 7 -16 18
-45 25 -62 7 -18 16 -33 21 -33 5 0 6 -7 3 -15 -4 -8 -2 -15 3 -15 5 0 15 -17
22 -37 22 -65 36 -93 44 -93 5 0 5 -4 2 -10 -3 -5 -3 -10 2 -10 4 0 22 -28 38
-63 17 -34 35 -65 41 -69 6 -4 21 -32 34 -62 13 -31 26 -56 30 -56 6 0 75 -95
90 -125 20 -39 53 -85 61 -85 5 0 9 -6 9 -12 0 -7 20 -33 45 -58 24 -25 44
-48 45 -52 0 -4 16 -23 34 -43 19 -20 50 -56 68 -81 18 -24 37 -42 43 -40 15
4 24 70 24 186 1 118 21 300 33 300 4 0 8 21 8 48 0 26 5 63 11 82 6 19 14 60
19 90 16 96 22 120 31 120 5 0 9 10 10 23 0 21 1 21 11 -3 24 -57 27 -66 33
-97 4 -18 10 -33 14 -33 8 0 43 -96 55 -152 4 -16 11 -28 16 -28 6 0 10 -8 10
-17 0 -10 6 -29 13 -43 7 -14 22 -49 32 -77 10 -29 22 -53 26 -53 4 0 15 -21
25 -47 9 -27 24 -54 33 -60 8 -7 11 -13 5 -13 -5 0 -5 -4 1 -8 6 -4 23 -34 40
-67 16 -33 33 -63 38 -66 11 -8 33 -45 48 -81 6 -16 15 -28 19 -28 5 0 18 -21
31 -47 12 -27 29 -52 36 -56 8 -5 18 -18 24 -30 13 -31 32 -60 47 -72 13 -10
25 -30 57 -92 10 -18 20 -33 24 -33 4 0 15 -15 26 -32 22 -39 90 -120 160
-193 28 -29 62 -65 77 -81 14 -16 45 -45 69 -64 23 -19 50 -43 60 -52 10 -9
32 -24 48 -33 17 -8 31 -19 31 -24 0 -4 18 -16 40 -26 22 -10 40 -22 40 -26 0
-4 9 -10 19 -14 11 -3 35 -16 54 -29 19 -13 58 -31 88 -41 30 -10 56 -21 59
-25 3 -4 25 -15 50 -23 25 -8 59 -22 75 -31 17 -9 42 -16 57 -16 15 0 30 -4
33 -10 3 -5 20 -10 37 -10 28 0 30 2 23 27 -3 15 -10 30 -14 33 -4 3 -20 37
-36 75 -16 39 -33 72 -37 73 -5 2 -6 8 -2 13 3 5 0 9 -5 9 -6 0 -11 6 -11 13
0 6 -16 44 -36 82 -19 39 -45 97 -56 130 -11 33 -25 66 -31 74 -6 7 -24 50
-39 95 -16 44 -33 83 -38 84 -6 2 -10 11 -10 20 0 25 -53 207 -61 210 -4 2 -5
10 -2 18 3 8 -1 22 -9 32 -13 15 -24 53 -45 155 -3 15 -9 27 -13 27 -5 0 -6 9
-3 21 3 12 1 24 -5 28 -12 7 -52 160 -52 200 -1 14 -8 44 -16 66 -9 22 -20 63
-24 90 -30 191 -42 260 -48 269 -3 6 -5 24 -3 39 1 15 -2 33 -7 40 -5 7 -12
46 -15 87 -17 231 -28 361 -37 411 -6 30 -10 81 -10 112 0 31 -4 57 -9 57 -10
0 -16 44 -30 240 -28 389 -31 529 -21 870 14 445 33 739 52 776 5 12 8 47 7
78 -2 31 0 57 4 59 8 2 29 143 44 295 3 34 10 62 16 62 5 0 7 14 5 30 -3 17
-1 30 3 30 4 0 10 30 14 68 3 37 13 101 21 143 7 42 14 89 14 105 0 16 7 42
15 58 8 16 18 47 21 70 11 83 47 226 56 226 6 0 8 11 6 25 -3 14 -2 25 2 25 4
0 10 12 13 28 13 67 35 143 47 157 7 8 10 22 6 30 -3 8 -2 15 3 15 8 0 13 14
31 95 16 73 35 130 47 143 6 6 14 20 16 30 3 9 13 47 23 85 9 37 20 67 24 67
4 0 13 20 19 44 6 25 15 48 21 51 5 3 10 14 10 24 0 10 7 24 15 31 8 7 12 16
9 21 -3 5 -2 9 3 9 4 0 16 21 26 48 10 26 22 56 26 67 5 11 9 24 9 29 0 5 4
12 9 15 8 6 53 103 53 115 0 10 -33 6 -60 -7z m-3104 -3033 c-9 -26 -16 -58
-16 -70 0 -13 -6 -27 -14 -31 -7 -4 -18 -28 -24 -53 -23 -97 -35 -136 -50
-152 -8 -10 -12 -24 -9 -33 4 -8 3 -15 -1 -15 -7 0 -42 -105 -42 -127 0 -7 -6
-16 -13 -20 -7 -4 -21 -35 -31 -68 -9 -33 -22 -69 -28 -80 -7 -11 -22 -40 -35
-65 -13 -25 -23 -40 -23 -34 0 7 -10 14 -23 18 -12 3 -32 14 -43 25 -12 10
-35 26 -52 35 -17 9 -51 29 -75 46 -25 16 -50 30 -56 30 -6 0 -11 4 -11 10 0
5 -15 17 -32 26 -18 9 -35 20 -38 24 -3 4 -21 15 -40 25 -59 31 -62 38 -21 71
20 17 46 36 59 43 13 7 32 20 42 29 22 20 45 37 118 89 70 51 192 139 217 158
54 41 137 95 145 95 4 0 10 4 12 9 4 12 91 71 96 66 3 -2 -3 -25 -12 -51z"/>
<path d="M3590 9617 c-25 -6 -47 -14 -50 -18 -3 -5 -22 -15 -43 -24 -20 -8
-37 -19 -37 -24 0 -6 -10 -13 -22 -17 -23 -6 -38 -19 -121 -99 -54 -52 -157
-178 -157 -192 0 -6 -7 -16 -14 -23 -18 -14 -61 -103 -64 -133 -1 -4 -8 -15
-17 -23 -8 -9 -15 -25 -15 -38 0 -12 -5 -27 -12 -34 -7 -7 -13 -68 -16 -174
-4 -149 -2 -167 17 -212 45 -102 93 -136 195 -136 60 0 156 24 156 39 0 4 19
15 41 25 23 10 49 26 59 35 9 9 32 29 51 45 111 93 204 198 240 271 12 25 27
45 31 45 5 0 6 5 3 10 -3 6 -2 10 4 10 5 0 20 27 32 60 12 33 26 60 32 60 5 0
7 9 4 20 -3 11 -2 20 2 20 32 0 51 319 22 388 -7 17 -17 32 -22 32 -5 0 -8 4
-6 8 5 16 -64 71 -100 81 -46 13 -133 12 -193 -2z m98 -253 c19 -12 22 -23 22
-75 0 -39 -7 -73 -19 -97 -30 -59 -101 -126 -151 -142 -25 -8 -48 -19 -52 -25
-6 -7 -10 -7 -15 1 -5 5 -22 16 -40 23 -34 14 -43 33 -43 102 0 49 37 133 68
155 10 7 29 23 45 37 15 15 44 29 65 32 20 4 42 8 47 10 14 5 46 -5 73 -21z"/>
</g>
</svg>
